<mxfile host="app.diagrams.net" agent="Mozilla/5.0 (Macintosh; Intel Mac OS X 10_15_7) AppleWebKit/537.36 (KHTML, like Gecko) Chrome/132.0.0.0 YaBrowser/25.2.0.0 Safari/537.36" version="26.2.14">
  <diagram name="Страница — 1" id="1H5sKnfE3d8eU885hcAn">
    <mxGraphModel dx="976" dy="676" grid="1" gridSize="10" guides="1" tooltips="1" connect="1" arrows="1" fold="1" page="1" pageScale="1" pageWidth="827" pageHeight="1169" math="0" shadow="0">
      <root>
        <mxCell id="0" />
        <mxCell id="1" parent="0" />
        <mxCell id="Tx_kG5JFjuZFg7bBJf-3-4" value="" style="endArrow=none;html=1;rounded=0;strokeWidth=3;" parent="1" edge="1">
          <mxGeometry width="50" height="50" relative="1" as="geometry">
            <mxPoint x="400" y="400" as="sourcePoint" />
            <mxPoint x="420" y="350" as="targetPoint" />
          </mxGeometry>
        </mxCell>
        <mxCell id="Tx_kG5JFjuZFg7bBJf-3-5" value="" style="endArrow=none;html=1;rounded=0;endSize=15;strokeWidth=3;" parent="1" edge="1">
          <mxGeometry width="50" height="50" relative="1" as="geometry">
            <mxPoint x="499.57" y="398" as="sourcePoint" />
            <mxPoint x="470" y="350" as="targetPoint" />
          </mxGeometry>
        </mxCell>
        <mxCell id="Tx_kG5JFjuZFg7bBJf-3-6" value="&lt;font style=&quot;font-size: 16px;&quot;&gt;Н_ОЦЕНКИ&lt;/font&gt;" style="text;html=1;align=center;verticalAlign=middle;resizable=0;points=[];autosize=1;strokeColor=none;fillColor=none;" parent="1" vertex="1">
          <mxGeometry x="315" y="398" width="110" height="30" as="geometry" />
        </mxCell>
        <mxCell id="Tx_kG5JFjuZFg7bBJf-3-7" value="&lt;font style=&quot;font-size: 16px;&quot;&gt;Н_ВЕДОМОСТИ&lt;/font&gt;" style="text;html=1;align=center;verticalAlign=middle;resizable=0;points=[];autosize=1;strokeColor=none;fillColor=none;" parent="1" vertex="1">
          <mxGeometry x="480" y="398" width="150" height="30" as="geometry" />
        </mxCell>
        <mxCell id="VUIe60FdvrsXHlw0F6U0-4" value="⨝" style="text;whiteSpace=wrap;fontSize=21;" vertex="1" parent="1">
          <mxGeometry x="300" y="310" width="40" height="40" as="geometry" />
        </mxCell>
        <mxCell id="VUIe60FdvrsXHlw0F6U0-7" value="Н_ВЕДОМОСТИ.ОЦЕНКА = Н_ОЦЕНКИ.КОД" style="text;whiteSpace=wrap;fontSize=16;" vertex="1" parent="1">
          <mxGeometry x="320" y="320" width="360" height="40" as="geometry" />
        </mxCell>
        <mxCell id="VUIe60FdvrsXHlw0F6U0-11" value="Н_ОЦЕНКИ.КОД ~ &#39;^\d+$&#39;" style="text;whiteSpace=wrap;fontSize=16;" vertex="1" parent="1">
          <mxGeometry x="340" y="250" width="210" height="40" as="geometry" />
        </mxCell>
        <mxCell id="VUIe60FdvrsXHlw0F6U0-12" value="" style="endArrow=none;html=1;rounded=0;strokeWidth=3;" edge="1" parent="1">
          <mxGeometry width="50" height="50" relative="1" as="geometry">
            <mxPoint x="440" y="320" as="sourcePoint" />
            <mxPoint x="440" y="280" as="targetPoint" />
          </mxGeometry>
        </mxCell>
        <mxCell id="VUIe60FdvrsXHlw0F6U0-13" value="" style="endArrow=none;html=1;rounded=0;strokeWidth=3;" edge="1" parent="1">
          <mxGeometry width="50" height="50" relative="1" as="geometry">
            <mxPoint x="439" y="250" as="sourcePoint" />
            <mxPoint x="439" y="210" as="targetPoint" />
          </mxGeometry>
        </mxCell>
        <mxCell id="VUIe60FdvrsXHlw0F6U0-15" value="&lt;span style=&quot;font-size: 16px;&quot;&gt;Н_ОЦЕНКИ.КОД &amp;gt; 5&lt;/span&gt;" style="text;whiteSpace=wrap;html=1;" vertex="1" parent="1">
          <mxGeometry x="340" y="170" width="240" height="40" as="geometry" />
        </mxCell>
        <mxCell id="VUIe60FdvrsXHlw0F6U0-18" value="σ" style="text;whiteSpace=wrap;strokeWidth=3;fontSize=21;" vertex="1" parent="1">
          <mxGeometry x="290" y="80" width="40" height="40" as="geometry" />
        </mxCell>
        <mxCell id="VUIe60FdvrsXHlw0F6U0-19" value="σ" style="text;whiteSpace=wrap;strokeWidth=3;fontSize=21;" vertex="1" parent="1">
          <mxGeometry x="320" y="240" width="60" height="40" as="geometry" />
        </mxCell>
        <mxCell id="VUIe60FdvrsXHlw0F6U0-20" value="σ" style="text;whiteSpace=wrap;strokeWidth=3;fontSize=21;" vertex="1" parent="1">
          <mxGeometry x="320" y="170" width="40" height="40" as="geometry" />
        </mxCell>
        <mxCell id="VUIe60FdvrsXHlw0F6U0-24" value="" style="endArrow=none;html=1;rounded=0;strokeWidth=3;" edge="1" parent="1">
          <mxGeometry width="50" height="50" relative="1" as="geometry">
            <mxPoint x="439" y="170" as="sourcePoint" />
            <mxPoint x="439" y="130" as="targetPoint" />
          </mxGeometry>
        </mxCell>
        <mxCell id="VUIe60FdvrsXHlw0F6U0-25" value="Н_ОЦЕНКИ.КОД ~ &#39;^\d+$&#39;" style="text;whiteSpace=wrap;fontSize=16;" vertex="1" parent="1">
          <mxGeometry x="304.5" y="1000" width="210" height="40" as="geometry" />
        </mxCell>
        <mxCell id="VUIe60FdvrsXHlw0F6U0-26" value="" style="endArrow=none;html=1;rounded=0;strokeWidth=3;" edge="1" parent="1">
          <mxGeometry width="50" height="50" relative="1" as="geometry">
            <mxPoint x="403.5" y="1000" as="sourcePoint" />
            <mxPoint x="403.5" y="960" as="targetPoint" />
          </mxGeometry>
        </mxCell>
        <mxCell id="VUIe60FdvrsXHlw0F6U0-27" value="&lt;span style=&quot;font-size: 16px;&quot;&gt;Н_ОЦЕНКИ.КОД &amp;gt; 5&lt;/span&gt;" style="text;whiteSpace=wrap;html=1;" vertex="1" parent="1">
          <mxGeometry x="304.5" y="920" width="240" height="40" as="geometry" />
        </mxCell>
        <mxCell id="VUIe60FdvrsXHlw0F6U0-30" value="σ" style="text;whiteSpace=wrap;strokeWidth=3;fontSize=21;" vertex="1" parent="1">
          <mxGeometry x="284.5" y="990" width="60" height="40" as="geometry" />
        </mxCell>
        <mxCell id="VUIe60FdvrsXHlw0F6U0-31" value="σ" style="text;whiteSpace=wrap;strokeWidth=3;fontSize=21;" vertex="1" parent="1">
          <mxGeometry x="284.5" y="920" width="40" height="40" as="geometry" />
        </mxCell>
        <mxCell id="VUIe60FdvrsXHlw0F6U0-34" value="&lt;font style=&quot;font-size: 16px;&quot;&gt;Н_ОЦЕНКИ&lt;/font&gt;" style="text;html=1;align=center;verticalAlign=middle;resizable=0;points=[];autosize=1;strokeColor=none;fillColor=none;" vertex="1" parent="1">
          <mxGeometry x="353.5" y="1070" width="110" height="30" as="geometry" />
        </mxCell>
        <mxCell id="VUIe60FdvrsXHlw0F6U0-35" value="" style="endArrow=none;html=1;rounded=0;strokeWidth=3;" edge="1" parent="1">
          <mxGeometry width="50" height="50" relative="1" as="geometry">
            <mxPoint x="404.5" y="1070" as="sourcePoint" />
            <mxPoint x="404.5" y="1030" as="targetPoint" />
          </mxGeometry>
        </mxCell>
        <mxCell id="VUIe60FdvrsXHlw0F6U0-36" value="&lt;font style=&quot;font-size: 16px;&quot;&gt;Н_ВЕДОМОСТИ&lt;/font&gt;" style="text;html=1;align=center;verticalAlign=middle;resizable=0;points=[];autosize=1;strokeColor=none;fillColor=none;" vertex="1" parent="1">
          <mxGeometry x="610" y="1010" width="150" height="30" as="geometry" />
        </mxCell>
        <mxCell id="VUIe60FdvrsXHlw0F6U0-37" value="&lt;span style=&quot;font-size: 16px;&quot;&gt;Н_ВЕДОМОСТИ.ДАТА::date = &#39;2010-06-18&#39;&lt;/span&gt;" style="text;whiteSpace=wrap;html=1;" vertex="1" parent="1">
          <mxGeometry x="310" y="90" width="350" height="40" as="geometry" />
        </mxCell>
        <mxCell id="VUIe60FdvrsXHlw0F6U0-38" value="" style="endArrow=none;html=1;rounded=0;endSize=15;strokeWidth=3;" edge="1" parent="1">
          <mxGeometry width="50" height="50" relative="1" as="geometry">
            <mxPoint x="669.5699999999999" y="905" as="sourcePoint" />
            <mxPoint x="590" y="830" as="targetPoint" />
          </mxGeometry>
        </mxCell>
        <mxCell id="VUIe60FdvrsXHlw0F6U0-39" value="" style="endArrow=none;html=1;rounded=0;strokeWidth=3;" edge="1" parent="1">
          <mxGeometry width="50" height="50" relative="1" as="geometry">
            <mxPoint x="414" y="905" as="sourcePoint" />
            <mxPoint x="500" y="830" as="targetPoint" />
          </mxGeometry>
        </mxCell>
        <mxCell id="VUIe60FdvrsXHlw0F6U0-40" value="⨝" style="text;whiteSpace=wrap;fontSize=21;" vertex="1" parent="1">
          <mxGeometry x="340" y="790" width="40" height="40" as="geometry" />
        </mxCell>
        <mxCell id="VUIe60FdvrsXHlw0F6U0-41" value="Н_ВЕДОМОСТИ.ОЦЕНКА = Н_ОЦЕНКИ.КОД" style="text;whiteSpace=wrap;fontSize=16;" vertex="1" parent="1">
          <mxGeometry x="360" y="800" width="360" height="40" as="geometry" />
        </mxCell>
        <mxCell id="VUIe60FdvrsXHlw0F6U0-42" value="" style="endArrow=none;html=1;rounded=0;strokeWidth=3;" edge="1" parent="1">
          <mxGeometry width="50" height="50" relative="1" as="geometry">
            <mxPoint x="540" y="790" as="sourcePoint" />
            <mxPoint x="540" y="750" as="targetPoint" />
          </mxGeometry>
        </mxCell>
        <mxCell id="VUIe60FdvrsXHlw0F6U0-43" value="" style="endArrow=none;html=1;rounded=0;strokeWidth=3;" edge="1" parent="1">
          <mxGeometry width="50" height="50" relative="1" as="geometry">
            <mxPoint x="440" y="90" as="sourcePoint" />
            <mxPoint x="440" y="50" as="targetPoint" />
          </mxGeometry>
        </mxCell>
        <mxCell id="VUIe60FdvrsXHlw0F6U0-45" value="&lt;div style=&quot;text-align: center;&quot;&gt;&lt;span style=&quot;font-size: 16px; text-wrap-mode: nowrap;&quot;&gt;Н_ОЦЕНКИ.ПРИМЕЧАНИЕ, Н_ВЕДОМОСТИ.ИД&lt;/span&gt;&lt;/div&gt;" style="text;whiteSpace=wrap;html=1;" vertex="1" parent="1">
          <mxGeometry x="400" y="720" width="110" height="40" as="geometry" />
        </mxCell>
        <mxCell id="VUIe60FdvrsXHlw0F6U0-47" value="π" style="text;whiteSpace=wrap;fontSize=21;" vertex="1" parent="1">
          <mxGeometry x="380" y="710" width="40" height="40" as="geometry" />
        </mxCell>
        <mxCell id="VUIe60FdvrsXHlw0F6U0-48" value="&lt;div style=&quot;text-align: center;&quot;&gt;&lt;span style=&quot;font-size: 16px; text-wrap-mode: nowrap;&quot;&gt;Н_ОЦЕНКИ.ПРИМЕЧАНИЕ, Н_ВЕДОМОСТИ.ИД&lt;/span&gt;&lt;/div&gt;" style="text;whiteSpace=wrap;html=1;" vertex="1" parent="1">
          <mxGeometry x="300" y="20" width="110" height="40" as="geometry" />
        </mxCell>
        <mxCell id="VUIe60FdvrsXHlw0F6U0-49" value="π" style="text;whiteSpace=wrap;fontSize=21;" vertex="1" parent="1">
          <mxGeometry x="280" y="10" width="40" height="40" as="geometry" />
        </mxCell>
        <mxCell id="VUIe60FdvrsXHlw0F6U0-53" value="Н_ОБУЧЕНИЯ         Н_УЧЕНИКИ" style="text;whiteSpace=wrap;fontSize=12;" vertex="1" parent="1">
          <mxGeometry x="235" y="2240" width="420" height="41" as="geometry" />
        </mxCell>
        <mxCell id="VUIe60FdvrsXHlw0F6U0-54" value="" style="endArrow=none;html=1;rounded=0;strokeWidth=3;" edge="1" parent="1">
          <mxGeometry width="50" height="50" relative="1" as="geometry">
            <mxPoint x="280" y="2240" as="sourcePoint" />
            <mxPoint x="300" y="2190" as="targetPoint" />
          </mxGeometry>
        </mxCell>
        <mxCell id="VUIe60FdvrsXHlw0F6U0-55" value="" style="endArrow=none;html=1;rounded=0;endSize=15;strokeWidth=3;" edge="1" parent="1">
          <mxGeometry width="50" height="50" relative="1" as="geometry">
            <mxPoint x="379.57" y="2238" as="sourcePoint" />
            <mxPoint x="350" y="2190" as="targetPoint" />
          </mxGeometry>
        </mxCell>
        <mxCell id="VUIe60FdvrsXHlw0F6U0-59" value="⨝" style="text;whiteSpace=wrap;fontSize=21;" vertex="1" parent="1">
          <mxGeometry x="160" y="2150" width="40" height="40" as="geometry" />
        </mxCell>
        <mxCell id="VUIe60FdvrsXHlw0F6U0-63" value="Н_ОБУЧЕНИЯ.ЧЛВК_ИД = Н_УЧЕНИКИ.ЧЛВК_ИД" style="text;whiteSpace=wrap;" vertex="1" parent="1">
          <mxGeometry x="180" y="2160" width="320" height="40" as="geometry" />
        </mxCell>
        <mxCell id="VUIe60FdvrsXHlw0F6U0-66" value="" style="endArrow=none;html=1;rounded=0;strokeWidth=3;" edge="1" parent="1">
          <mxGeometry width="50" height="50" relative="1" as="geometry">
            <mxPoint x="330" y="2160" as="sourcePoint" />
            <mxPoint x="400" y="2100" as="targetPoint" />
          </mxGeometry>
        </mxCell>
        <mxCell id="VUIe60FdvrsXHlw0F6U0-67" value="⨝" style="text;whiteSpace=wrap;fontSize=21;" vertex="1" parent="1">
          <mxGeometry x="309" y="2070" width="40" height="40" as="geometry" />
        </mxCell>
        <mxCell id="VUIe60FdvrsXHlw0F6U0-69" value="Н_ЛЮДИ" style="text;whiteSpace=wrap;" vertex="1" parent="1">
          <mxGeometry x="520" y="2160" width="90" height="40" as="geometry" />
        </mxCell>
        <mxCell id="VUIe60FdvrsXHlw0F6U0-70" value="" style="endArrow=none;html=1;rounded=0;endSize=15;strokeWidth=3;" edge="1" parent="1">
          <mxGeometry width="50" height="50" relative="1" as="geometry">
            <mxPoint x="539.5699999999999" y="2158" as="sourcePoint" />
            <mxPoint x="470" y="2100" as="targetPoint" />
          </mxGeometry>
        </mxCell>
        <mxCell id="VUIe60FdvrsXHlw0F6U0-72" value="Н_ЛЮДИ.ИД = Н_ОБУЧЕНИЯ.ЧЛВК_ИД" style="text;whiteSpace=wrap;" vertex="1" parent="1">
          <mxGeometry x="330" y="2080" width="260" height="40" as="geometry" />
        </mxCell>
        <mxCell id="VUIe60FdvrsXHlw0F6U0-74" value="Н_ЛЮДИ.ИД &lt; 100012" style="text;whiteSpace=wrap;" vertex="1" parent="1">
          <mxGeometry x="365" y="2010" width="160" height="40" as="geometry" />
        </mxCell>
        <mxCell id="VUIe60FdvrsXHlw0F6U0-75" value="σ" style="text;whiteSpace=wrap;strokeWidth=3;fontSize=21;" vertex="1" parent="1">
          <mxGeometry x="340" y="2000" width="60" height="40" as="geometry" />
        </mxCell>
        <mxCell id="VUIe60FdvrsXHlw0F6U0-76" value="σ" style="text;whiteSpace=wrap;strokeWidth=3;fontSize=21;" vertex="1" parent="1">
          <mxGeometry x="340" y="1930" width="60" height="40" as="geometry" />
        </mxCell>
        <mxCell id="VUIe60FdvrsXHlw0F6U0-78" value="Н_ОБУЧЕНИЯ.НЗК &gt; 001000" style="text;whiteSpace=wrap;" vertex="1" parent="1">
          <mxGeometry x="360" y="1940" width="240" height="40" as="geometry" />
        </mxCell>
        <mxCell id="VUIe60FdvrsXHlw0F6U0-80" value="Н_УЧЕНИКИ.ГРУППА = &#39;4103&#39;" style="text;whiteSpace=wrap;" vertex="1" parent="1">
          <mxGeometry x="360" y="1860" width="200" height="40" as="geometry" />
        </mxCell>
        <mxCell id="VUIe60FdvrsXHlw0F6U0-84" value="σ" style="text;whiteSpace=wrap;strokeWidth=3;fontSize=21;" vertex="1" parent="1">
          <mxGeometry x="330" y="1850" width="60" height="40" as="geometry" />
        </mxCell>
        <mxCell id="VUIe60FdvrsXHlw0F6U0-88" value="" style="endArrow=none;html=1;rounded=0;strokeWidth=3;exitX=0.358;exitY=0;exitDx=0;exitDy=0;exitPerimeter=0;" edge="1" parent="1" source="VUIe60FdvrsXHlw0F6U0-78">
          <mxGeometry width="50" height="50" relative="1" as="geometry">
            <mxPoint x="419" y="1940" as="sourcePoint" />
            <mxPoint x="446" y="1900" as="targetPoint" />
          </mxGeometry>
        </mxCell>
        <mxCell id="VUIe60FdvrsXHlw0F6U0-89" value="" style="endArrow=none;html=1;rounded=0;strokeWidth=3;exitX=0.358;exitY=0;exitDx=0;exitDy=0;exitPerimeter=0;" edge="1" parent="1">
          <mxGeometry width="50" height="50" relative="1" as="geometry">
            <mxPoint x="444.5" y="2010" as="sourcePoint" />
            <mxPoint x="444.5" y="1970" as="targetPoint" />
          </mxGeometry>
        </mxCell>
        <mxCell id="VUIe60FdvrsXHlw0F6U0-90" value="" style="endArrow=none;html=1;rounded=0;strokeWidth=3;exitX=0.358;exitY=0;exitDx=0;exitDy=0;exitPerimeter=0;" edge="1" parent="1">
          <mxGeometry width="50" height="50" relative="1" as="geometry">
            <mxPoint x="444.5" y="2080" as="sourcePoint" />
            <mxPoint x="444.5" y="2040" as="targetPoint" />
          </mxGeometry>
        </mxCell>
        <mxCell id="VUIe60FdvrsXHlw0F6U0-92" value="" style="endArrow=none;html=1;rounded=0;strokeWidth=3;" edge="1" parent="1">
          <mxGeometry width="50" height="50" relative="1" as="geometry">
            <mxPoint x="250" y="2870" as="sourcePoint" />
            <mxPoint x="270" y="2820" as="targetPoint" />
          </mxGeometry>
        </mxCell>
        <mxCell id="VUIe60FdvrsXHlw0F6U0-93" value="" style="endArrow=none;html=1;rounded=0;endSize=15;strokeWidth=3;" edge="1" parent="1">
          <mxGeometry width="50" height="50" relative="1" as="geometry">
            <mxPoint x="400" y="2873" as="sourcePoint" />
            <mxPoint x="370.43" y="2825" as="targetPoint" />
          </mxGeometry>
        </mxCell>
        <mxCell id="VUIe60FdvrsXHlw0F6U0-94" value="⨝" style="text;whiteSpace=wrap;fontSize=21;" vertex="1" parent="1">
          <mxGeometry x="156.5" y="2780" width="40" height="40" as="geometry" />
        </mxCell>
        <mxCell id="VUIe60FdvrsXHlw0F6U0-95" value="Н_ОБУЧЕНИЯ.ЧЛВК_ИД = Н_УЧЕНИКИ.ЧЛВК_ИД" style="text;whiteSpace=wrap;" vertex="1" parent="1">
          <mxGeometry x="176.5" y="2790" width="320" height="40" as="geometry" />
        </mxCell>
        <mxCell id="VUIe60FdvrsXHlw0F6U0-96" value="" style="endArrow=none;html=1;rounded=0;strokeWidth=3;" edge="1" parent="1">
          <mxGeometry width="50" height="50" relative="1" as="geometry">
            <mxPoint x="326.5" y="2790" as="sourcePoint" />
            <mxPoint x="396.5" y="2730" as="targetPoint" />
          </mxGeometry>
        </mxCell>
        <mxCell id="VUIe60FdvrsXHlw0F6U0-97" value="⨝" style="text;whiteSpace=wrap;fontSize=21;" vertex="1" parent="1">
          <mxGeometry x="305.5" y="2700" width="40" height="40" as="geometry" />
        </mxCell>
        <mxCell id="VUIe60FdvrsXHlw0F6U0-99" value="" style="endArrow=none;html=1;rounded=0;endSize=15;strokeWidth=3;" edge="1" parent="1">
          <mxGeometry width="50" height="50" relative="1" as="geometry">
            <mxPoint x="536.0699999999999" y="2788" as="sourcePoint" />
            <mxPoint x="466.5" y="2730" as="targetPoint" />
          </mxGeometry>
        </mxCell>
        <mxCell id="VUIe60FdvrsXHlw0F6U0-100" value="Н_ЛЮДИ.ИД = Н_ОБУЧЕНИЯ.ЧЛВК_ИД" style="text;whiteSpace=wrap;" vertex="1" parent="1">
          <mxGeometry x="326.5" y="2710" width="260" height="40" as="geometry" />
        </mxCell>
        <mxCell id="VUIe60FdvrsXHlw0F6U0-111" value="σ" style="text;whiteSpace=wrap;strokeWidth=3;fontSize=21;" vertex="1" parent="1">
          <mxGeometry x="496.5" y="2792" width="60" height="40" as="geometry" />
        </mxCell>
        <mxCell id="VUIe60FdvrsXHlw0F6U0-116" value="" style="endArrow=none;html=1;rounded=0;strokeWidth=3;exitX=0.358;exitY=0;exitDx=0;exitDy=0;exitPerimeter=0;" edge="1" parent="1">
          <mxGeometry width="50" height="50" relative="1" as="geometry">
            <mxPoint x="392.5000000000001" y="2953" as="sourcePoint" />
            <mxPoint x="392.58000000000004" y="2913" as="targetPoint" />
          </mxGeometry>
        </mxCell>
        <mxCell id="VUIe60FdvrsXHlw0F6U0-117" value="" style="endArrow=none;html=1;rounded=0;strokeWidth=3;exitX=0.358;exitY=0;exitDx=0;exitDy=0;exitPerimeter=0;" edge="1" parent="1">
          <mxGeometry width="50" height="50" relative="1" as="geometry">
            <mxPoint x="217.5" y="2943" as="sourcePoint" />
            <mxPoint x="217.5" y="2903" as="targetPoint" />
          </mxGeometry>
        </mxCell>
        <mxCell id="VUIe60FdvrsXHlw0F6U0-119" value="σ" style="text;whiteSpace=wrap;strokeWidth=3;fontSize=21;" vertex="1" parent="1">
          <mxGeometry x="113" y="2863" width="60" height="40" as="geometry" />
        </mxCell>
        <mxCell id="VUIe60FdvrsXHlw0F6U0-120" value="Н_ОБУЧЕНИЯ.НЗК &gt; 001000" style="text;whiteSpace=wrap;" vertex="1" parent="1">
          <mxGeometry x="133" y="2873" width="240" height="40" as="geometry" />
        </mxCell>
        <mxCell id="VUIe60FdvrsXHlw0F6U0-121" value="Н_ЛЮДИ" style="text;whiteSpace=wrap;" vertex="1" parent="1">
          <mxGeometry x="570" y="2873" width="90" height="40" as="geometry" />
        </mxCell>
        <mxCell id="VUIe60FdvrsXHlw0F6U0-122" value="Н_ЛЮДИ.ИД &lt; 100012" style="text;whiteSpace=wrap;" vertex="1" parent="1">
          <mxGeometry x="520" y="2802" width="160" height="40" as="geometry" />
        </mxCell>
        <mxCell id="VUIe60FdvrsXHlw0F6U0-123" value="" style="endArrow=none;html=1;rounded=0;strokeWidth=3;exitX=0.358;exitY=0;exitDx=0;exitDy=0;exitPerimeter=0;" edge="1" parent="1">
          <mxGeometry width="50" height="50" relative="1" as="geometry">
            <mxPoint x="599.5" y="2872" as="sourcePoint" />
            <mxPoint x="599.5" y="2832" as="targetPoint" />
          </mxGeometry>
        </mxCell>
        <mxCell id="VUIe60FdvrsXHlw0F6U0-124" value="Н_ОБУЧЕНИЯ" style="text;html=1;align=center;verticalAlign=middle;resizable=0;points=[];autosize=1;strokeColor=none;fillColor=none;" vertex="1" parent="1">
          <mxGeometry x="163" y="2953" width="110" height="30" as="geometry" />
        </mxCell>
        <mxCell id="VUIe60FdvrsXHlw0F6U0-127" value="&lt;span style=&quot;text-align: left; text-wrap-mode: wrap;&quot;&gt;Н_УЧЕНИКИ&lt;/span&gt;" style="text;html=1;align=center;verticalAlign=middle;resizable=0;points=[];autosize=1;strokeColor=none;fillColor=none;" vertex="1" parent="1">
          <mxGeometry x="348" y="2953" width="100" height="30" as="geometry" />
        </mxCell>
        <mxCell id="VUIe60FdvrsXHlw0F6U0-128" value="Н_УЧЕНИКИ.ГРУППА = &#39;4103&#39;" style="text;whiteSpace=wrap;" vertex="1" parent="1">
          <mxGeometry x="338" y="2873" width="200" height="40" as="geometry" />
        </mxCell>
        <mxCell id="VUIe60FdvrsXHlw0F6U0-129" value="σ" style="text;whiteSpace=wrap;strokeWidth=3;fontSize=21;" vertex="1" parent="1">
          <mxGeometry x="308" y="2863" width="60" height="40" as="geometry" />
        </mxCell>
        <mxCell id="VUIe60FdvrsXHlw0F6U0-131" value="" style="endArrow=none;html=1;rounded=0;strokeWidth=3;exitX=0.358;exitY=0;exitDx=0;exitDy=0;exitPerimeter=0;" edge="1" parent="1">
          <mxGeometry width="50" height="50" relative="1" as="geometry">
            <mxPoint x="444.5" y="1860" as="sourcePoint" />
            <mxPoint x="444.5" y="1820" as="targetPoint" />
          </mxGeometry>
        </mxCell>
        <mxCell id="VUIe60FdvrsXHlw0F6U0-132" value="π" style="text;whiteSpace=wrap;fontSize=21;" vertex="1" parent="1">
          <mxGeometry x="220" y="1780" width="40" height="40" as="geometry" />
        </mxCell>
        <mxCell id="VUIe60FdvrsXHlw0F6U0-135" value="Н_ЛЮДИ.ФАМИЛИЯ, Н_ОБУЧЕНИЯ.ЧЛВК_ИД, Н_УЧЕНИКИ.НАЧАЛО" style="text;whiteSpace=wrap;" vertex="1" parent="1">
          <mxGeometry x="250" y="1790" width="430" height="40" as="geometry" />
        </mxCell>
        <mxCell id="VUIe60FdvrsXHlw0F6U0-136" value="π" style="text;whiteSpace=wrap;fontSize=21;" vertex="1" parent="1">
          <mxGeometry x="220" y="2620" width="40" height="40" as="geometry" />
        </mxCell>
        <mxCell id="VUIe60FdvrsXHlw0F6U0-137" value="Н_ЛЮДИ.ФАМИЛИЯ, Н_ОБУЧЕНИЯ.ЧЛВК_ИД, Н_УЧЕНИКИ.НАЧАЛО" style="text;whiteSpace=wrap;" vertex="1" parent="1">
          <mxGeometry x="250" y="2630" width="430" height="40" as="geometry" />
        </mxCell>
        <mxCell id="VUIe60FdvrsXHlw0F6U0-139" value="" style="endArrow=none;html=1;rounded=0;strokeWidth=3;exitX=0.358;exitY=0;exitDx=0;exitDy=0;exitPerimeter=0;" edge="1" parent="1">
          <mxGeometry width="50" height="50" relative="1" as="geometry">
            <mxPoint x="437.5000000000001" y="2710" as="sourcePoint" />
            <mxPoint x="437.58000000000004" y="2670" as="targetPoint" />
          </mxGeometry>
        </mxCell>
        <mxCell id="VUIe60FdvrsXHlw0F6U0-140" value="Н_ВЕДОМОСТИ.ДАТА::date = &#39;2010-06-18&#39;" style="text;whiteSpace=wrap;fontSize=16;" vertex="1" parent="1">
          <mxGeometry x="540" y="925" width="320" height="40" as="geometry" />
        </mxCell>
        <mxCell id="VUIe60FdvrsXHlw0F6U0-141" value="σ" style="text;whiteSpace=wrap;strokeWidth=3;fontSize=21;" vertex="1" parent="1">
          <mxGeometry x="520" y="920" width="40" height="40" as="geometry" />
        </mxCell>
        <mxCell id="VUIe60FdvrsXHlw0F6U0-142" value="" style="endArrow=none;html=1;rounded=0;strokeWidth=3;" edge="1" parent="1">
          <mxGeometry width="50" height="50" relative="1" as="geometry">
            <mxPoint x="684.5" y="1000" as="sourcePoint" />
            <mxPoint x="684.5" y="960" as="targetPoint" />
          </mxGeometry>
        </mxCell>
      </root>
    </mxGraphModel>
  </diagram>
</mxfile>
